<svg xmlns="http://www.w3.org/2000/svg" viewBox="0 0 128 128" role="img" aria-label="macOS logo">
  <defs>
    <linearGradient id="gMac" x1="0" x2="1" y1="0" y2="1">
      <stop offset="0%" stop-color="#F472B6"/>
      <stop offset="50%" stop-color="#A78BFA"/>
      <stop offset="100%" stop-color="#38BDF8"/>
    </linearGradient>
  </defs>
  <rect width="128" height="128" rx="24" fill="#111827"/>
  <circle cx="64" cy="64" r="42" fill="url(#gMac)" opacity="0.98"/>
  <path d="M67 32c10 6 16 16 16 29 0 12-4 20-10 28-4 5-8 10-14 14-6-4-10-9-14-14-6-8-10-16-10-28 0-13 6-23 16-29-1 6-1 11 0 17 2 8 8 14 16 14 8 0 14-6 16-14 1-6 1-11 0-17z" fill="#fff" opacity="0.95"/>
  <path d="M62 22c3-8 10-13 18-13 0 7-3 12-9 15-5 3-9 5-9 8 0 0 0-5 0-10z" fill="#fff" opacity="0.95"/>
</svg>